<?xml version="1.0" encoding="UTF-8"?>
<svg width="143px" height="37px" viewBox="0 0 143 37" version="1.1" xmlns="http://www.w3.org/2000/svg" xmlns:xlink="http://www.w3.org/1999/xlink">
    <defs>
        <linearGradient x1="50%" y1="0%" x2="50%" y2="100%" id="linearGradient-1">
            <stop stop-color="#F9E547" offset="0%"></stop>
            <stop stop-color="#F9E547" stop-opacity="0.7" offset="30%"></stop>
            <stop stop-color="#F9E547" stop-opacity="0" offset="100%"></stop>
        </linearGradient>
    </defs>
    <g id="pg-logo" stroke="none" stroke-width="1" fill="none" fill-rule="evenodd">
        <path id="pixelgrade" fill="currentColor" d="M51.6192891,21.5262578 C51.0051626,20.3277697 49.7377102,19.5030037 48.2807931,19.5030037 C46.8238761,19.5030037 45.5629569,20.3277697 44.9488304,21.5262578 L51.6192891,21.5262578 Z M132.180921,24.3485039 C132.677449,25.8111748 134.075567,26.8614627 135.721948,26.8614627 C136.839136,26.8614627 137.838724,26.3782014 138.524717,25.6178703 L141.026955,28.0857248 C139.700704,29.4839608 137.812591,30.3538312 135.721948,30.3538312 C131.710526,30.3538312 128.450429,27.1385326 128.450429,23.1822332 C128.450429,19.2194904 131.710526,16.0041917 135.721948,16.0041917 C139.739903,16.0041917 143,19.2194904 143,23.1822332 C143,23.5817292 142.967334,23.9683383 142.902001,24.3485039 L132.180921,24.3485039 Z M139.060444,21.5262578 C138.446318,20.3277697 137.178865,19.5030037 135.721948,19.5030037 C134.265031,19.5030037 133.004112,20.3277697 132.389985,21.5262578 L139.060444,21.5262578 Z M126.065789,29.9801091 L123.027823,29.9801091 L122.354898,28.9233777 C121.139711,29.8254655 119.630528,30.3538312 117.997213,30.3538312 C113.979258,30.3538312 110.719161,27.1385326 110.719161,23.1822332 C110.719161,19.2194904 113.979258,16.0041917 117.997213,16.0041917 C119.630528,16.0041917 121.139711,16.5390009 122.354898,17.4410887 L122.354898,9.67024671 L126.065789,9.67024671 L126.065789,29.9801091 Z M118.330409,19.4965602 C116.272432,19.4965602 114.599918,21.1460922 114.599918,23.1822332 C114.599918,25.2119308 116.272432,26.8614627 118.330409,26.8614627 C120.388386,26.8614627 122.060901,25.2119308 122.060901,23.1822332 C122.060901,21.1460922 120.388386,19.4965602 118.330409,19.4965602 Z M108.334521,29.9801091 L105.642818,29.9801091 L104.969892,28.6656383 L104.963359,28.6720818 L104.963359,28.6591949 C103.695906,29.7159263 102.056058,30.3538312 100.265945,30.3538312 C96.2479898,30.3538312 92.9878929,27.1385326 92.9878929,23.1822332 C92.9878929,19.2194904 96.2479898,16.0041917 100.265945,16.0041917 C102.062591,16.0041917 103.708973,16.6485402 104.976425,17.7181586 L105.623218,16.4745661 L108.334521,16.4745661 L108.334521,29.9801091 Z M100.599141,19.4965602 C98.5411641,19.4965602 96.8686495,21.1460922 96.8686495,23.1822332 C96.8686495,25.2119308 98.5411641,26.8614627 100.599141,26.8614627 C102.663651,26.8614627 104.336166,25.2119308 104.336166,23.1822332 C104.336166,21.1460922 102.663651,19.4965602 100.599141,19.4965602 Z M86.1933023,29.9801091 L82.22108,29.9801091 L82.22108,16.4745661 L84.9650493,16.4745661 L85.8731725,18.0081154 C86.8923611,16.6936446 88.7020742,16.1330614 90.5117873,16.1330614 C91.308845,16.1330614 92.0993695,16.2554876 92.8310947,16.5067835 L91.2761787,19.986265 C88.9568713,18.9810815 86.6048977,20.3599871 86.1933023,22.5249978 L86.1933023,29.9801091 Z M79.7057749,29.9801091 C79.3791118,33.6464517 76.2562135,36.5202457 72.4603893,36.5202457 C70.3240132,36.5202457 68.4032346,35.6117144 67.0704496,34.1619304 L69.5792215,31.6876325 C70.2652138,32.505955 71.2974689,33.0278772 72.4603893,33.0278772 C74.5183662,33.0278772 76.1908808,31.3783452 76.1908808,29.3486477 L76.1908808,28.794508 C74.9495614,29.7739176 73.3750457,30.3538312 71.6633315,30.3538312 C67.6519097,30.3538312 64.3918129,27.1385326 64.3918129,23.1822332 C64.3918129,19.2194904 67.6519097,16.0041917 71.6633315,16.0041917 C73.4599781,16.0041917 75.1063596,16.6485402 76.3803454,17.7181586 L77.0206049,16.4745661 L79.7384412,16.4745661 L79.7384412,29.9801091 L79.7057749,29.9801091 Z M72.003061,19.4965602 C69.9385508,19.4965602 68.2660362,21.1460922 68.2660362,23.1822332 C68.2660362,25.2119308 69.9385508,26.8614627 72.003061,26.8614627 C74.061038,26.8614627 75.7335526,25.2119308 75.7335526,23.1822332 C75.7335526,21.1460922 74.061038,19.4965602 72.003061,19.4965602 Z M57.943485,29.9801091 L62.0071729,29.9801091 L62.0071729,9.67024671 L57.943485,9.67024671 L57.943485,29.9801091 Z M44.7397661,24.3485039 C45.2362939,25.8111748 46.6344115,26.8614627 48.2807931,26.8614627 C49.3979806,26.8614627 50.3975694,26.3782014 51.0835618,25.6178703 L53.5858004,28.0857248 C52.2595486,29.4839608 50.3714364,30.3538312 48.2807931,30.3538312 C44.2693713,30.3538312 41.0092745,27.1385326 41.0092745,23.1822332 C41.0092745,19.2194904 44.2693713,16.0041917 48.2807931,16.0041917 C52.2987482,16.0041917 55.558845,19.2194904 55.558845,23.1822332 C55.558845,23.5817292 55.5261787,23.9683383 55.4608461,24.3485039 L51.8218202,24.3485039 L44.7397661,24.3485039 Z M32.8753655,20.4566394 L35.7630665,16.4745661 L40.369015,16.4745661 L35.3514711,23.4013117 L40.0880848,29.9801091 L35.4756031,29.9801091 L32.8753655,26.3782014 L29.9811312,29.9801091 L25.6953125,29.9801091 L30.4253929,23.4013117 L25.407849,16.4745661 L30.0137975,16.4745661 L32.8753655,20.4566394 Z M18.9462029,30.0755266 L18.9462029,16.576427 L23.0425571,16.576427 L23.0425571,30.0755266 L18.9462029,30.0755266 Z M3.71742507,36.790872 L0,36.790872 L0,16.4745661 L3.09676535,16.4745661 L3.71089181,18.0210023 C5.02407712,16.7709664 6.8011239,16.0041917 8.76763523,16.0041917 C12.7855903,16.0041917 16.0456871,19.2194904 16.0456871,23.1822332 C16.0456871,27.144976 12.7855903,30.3602747 8.76763523,30.3602747 C6.80765716,30.3602747 5.02407712,29.5999436 3.71742507,28.3499076 L3.71742507,36.790872 Z M8.4279057,19.4578993 C6.34379569,19.4578993 4.65168129,21.1267617 4.65168129,23.1822332 C4.65168129,25.2441482 6.34379569,26.9130106 8.4279057,26.9130106 C10.518549,26.9130106 12.2106634,25.2441482 12.2106634,23.1822332 C12.2106634,21.1267617 10.518549,19.4578993 8.4279057,19.4578993 Z" fill-rule="nonzero"></path>
        <g id="pixel" transform="translate(19, 0)">
            <rect id="Rectangle-path" fill="currentColor" x="0" y="0.790872" width="3.9886743" height="3.94638876"></rect>
            <rect id="Rectangle" fill="url(#linearGradient-1)" fill-rule="nonzero" x="0" y="4.790872" width="3.9886743" height="10"></rect>
        </g>
    </g>
</svg>